<svg xmlns="http://www.w3.org/2000/svg" viewBox="0 0 149.69 39.25"><defs><style>.cls-1{fill:#e30613;}.cls-2{fill:#e73137;}.cls-3{fill:#243588;}</style></defs><g id="Camada_2" data-name="Camada 2"><g id="Camada_1-2" data-name="Camada 1"><line class="cls-1" x1="93.9" y1="29" x2="94.06" y2="29"/><line class="cls-1" x1="47.01" y1="29" x2="47.18" y2="29"/><path class="cls-2" d="M16.52,38.57C67.84-6.06-6.46,26.18,32,.73L33.13,0H29.25L28.09.7c-10.22,5.67-14.33,9.92-14.91,12a1.72,1.72,0,0,0-.08.48c-.09,2.27,4.33,2.28,6.54,2.37,5.4.23,9.83.58,5.15,5.91-2.92,3.33-9.35,8.89-22,17.11l-.93.64H15.57Z"/><path class="cls-3" d="M12.05,31.26C5.59,27.33.92,21.82.12,16.33-1.18,7.4,8.22,1.83,21.05,3.9l-.48.35C9.35,2.74,1.25,7.74,2.4,15.65c.76,5.24,5.4,10.5,11.74,14.08-.66.49-1.36,1-2.09,1.53m14.57-26C37.16,8.62,45.78,16.32,46.9,24c1.31,9-8.14,14.53-21,12.42a36.91,36.91,0,0,1-4.68-1.07l2.13-2c.8.19,1.61.35,2.43.49C37.45,35.76,46,30.7,44.83,22.58c-1-7-9-14-18.61-17.06l.4-.28"/><path class="cls-3" d="M55,4.67h6.38V19.61c0,2.93,1.36,4.42,4.06,4.48a3.83,3.83,0,0,0,3.34-1.3,5.34,5.34,0,0,0,.93-3.18V4.67H73V20a8.4,8.4,0,0,1-1,4.28,6.3,6.3,0,0,1-3,2.64,12.56,12.56,0,0,1-5,.89,10.54,10.54,0,0,1-4.64-1A7.34,7.34,0,0,1,55,20Z"/><path class="cls-3" d="M99.08,9.17l-2.63,2a10.42,10.42,0,0,0-3.32-3.52,6.92,6.92,0,0,0-3.42-.89,4.84,4.84,0,0,0-2.84.93A5.3,5.3,0,0,0,85.2,9.82a11.79,11.79,0,0,0-.77,2.52c-.14.81-.29,2-.48,3.57a13.44,13.44,0,0,0,1.45,6.27,4.64,4.64,0,0,0,4.38,2.54,8.69,8.69,0,0,0,3-.48,6.39,6.39,0,0,0,2.38-1.56A10.44,10.44,0,0,0,97,19.9l2.57,1.9a10.09,10.09,0,0,1-1.77,2.61,9.87,9.87,0,0,1-2.41,1.88,11.56,11.56,0,0,1-2.87,1.11,14.3,14.3,0,0,1-7.62-.32,10.61,10.61,0,0,1-5.83-4.36,12.47,12.47,0,0,1-1.95-6.85,2.88,2.88,0,0,1,0-.35c0-.16,0-.31,0-.45A12.63,12.63,0,0,1,78,11.14a10.73,10.73,0,0,1,4.8-5.55,12.07,12.07,0,0,1,3.68-1.34A18.77,18.77,0,0,1,89.43,4,13.11,13.11,0,0,1,94.94,5.2a9.23,9.23,0,0,1,4.14,4"/><path class="cls-3" d="M104,4.67h10.44a12.44,12.44,0,0,1,3.89.65,11.78,11.78,0,0,1,3.76,2.06A10.29,10.29,0,0,1,125,11.09,12.58,12.58,0,0,1,126,16.5a10.45,10.45,0,0,1-1.79,6.25,9.74,9.74,0,0,1-4.17,3.39,11.87,11.87,0,0,1-4.55,1H104Zm6.31,2.84V24.3h2.43a5.46,5.46,0,0,0,3.29-1,6.84,6.84,0,0,0,2.24-2.94,12.34,12.34,0,0,0,.92-4.41,12.24,12.24,0,0,0-.42-3.29A7.85,7.85,0,0,0,117.51,10a5.78,5.78,0,0,0-2.17-1.81,6.92,6.92,0,0,0-3.08-.65Z"/><path class="cls-3" d="M130.37,4.67h10.16a11.64,11.64,0,0,1,4.53.76,6.19,6.19,0,0,1,2.66,1.93,4.88,4.88,0,0,1,1,2.44,7.51,7.51,0,0,1,.08.86,4.91,4.91,0,0,1-1.34,3.51,5.18,5.18,0,0,1-3.24,1.6,7.88,7.88,0,0,1,4.06,2.16,5.12,5.12,0,0,1,1.42,3.59,4.94,4.94,0,0,1-.93,3,5.81,5.81,0,0,1-2.65,2,11.19,11.19,0,0,1-4.09.68H130.37Zm6.31,9.47h2.63a3,3,0,0,0,2.11-.83,3.33,3.33,0,0,0,.88-2.57,3.3,3.3,0,0,0-1.06-2.41,3.92,3.92,0,0,0-2.61-.82h-1.95Zm0,10.16h2.5a3.43,3.43,0,0,0,2.77-1,3.49,3.49,0,0,0,.83-2.34,4,4,0,0,0-.48-1.91A3.86,3.86,0,0,0,141,17.6a3.44,3.44,0,0,0-1.91-.55h-2.36Z"/><path class="cls-3" d="M55.23,33v2.67a.71.71,0,0,0,.24.56.94.94,0,0,0,.6.23,1.37,1.37,0,0,0,.51-.12.65.65,0,0,0,.26-.26.87.87,0,0,0,.08-.39V33h.31v2.76a1,1,0,0,1-.17.59,1,1,0,0,1-.48.37,1.85,1.85,0,0,1-.69.12,2.13,2.13,0,0,1-.6-.08,1.22,1.22,0,0,1-.43-.25,1,1,0,0,1-.25-.38,1.36,1.36,0,0,1-.09-.51V33Z"/><polygon class="cls-3" points="58.06 32.98 58.69 32.98 60.64 35.55 60.66 35.55 60.66 32.98 60.95 32.98 60.95 36.72 60.65 36.72 58.38 33.73 58.36 33.73 58.36 36.72 58.06 36.72 58.06 32.98"/><rect class="cls-3" x="61.82" y="32.98" width="0.71" height="3.74"/><polygon class="cls-3" points="62.99 32.98 63.72 32.98 64.76 35.45 65.72 32.98 66.05 32.98 64.58 36.82 64.56 36.82 62.99 32.98"/><polygon class="cls-3" points="66.5 32.98 68.71 32.98 68.71 33.22 67.2 33.22 67.2 34.67 68.62 34.67 68.62 34.91 67.2 34.91 67.2 36.47 68.73 36.47 68.73 36.72 66.5 36.72 66.5 32.98"/><path class="cls-3" d="M69.35,33h1.59a1,1,0,0,1,.56.15.92.92,0,0,1,.39.39,1.08,1.08,0,0,1,.14.56.76.76,0,0,1-.25.61,1.25,1.25,0,0,1-.73.28l1,1.75h-.79l-1-1.92a1.27,1.27,0,0,0,.81-.21.71.71,0,0,0,.25-.57.93.93,0,0,0-.1-.45.72.72,0,0,0-.3-.3,1,1,0,0,0-.46-.1h-.4v3.55h-.71Z"/><path class="cls-3" d="M72.52,36.24l.26-.2a1.19,1.19,0,0,0,.27.33.69.69,0,0,0,.3.13h.1l.07,0a.84.84,0,0,0,.48-.17.55.55,0,0,0,.22-.42.75.75,0,0,0-.2-.56,1.52,1.52,0,0,0-.58-.32,3.36,3.36,0,0,1-.5-.23.94.94,0,0,1-.46-.88.94.94,0,0,1,.18-.57,1.1,1.1,0,0,1,.47-.38,1.61,1.61,0,0,1,.63-.13,1.29,1.29,0,0,1,.42.1,1.54,1.54,0,0,1,.37.23.88.88,0,0,1,.24.34l-.23.16a.83.83,0,0,0-.76-.53.6.6,0,0,0-.43.16.62.62,0,0,0-.2.43.57.57,0,0,0,.13.39,1.32,1.32,0,0,0,.43.29l.44.19a1.88,1.88,0,0,1,.37.21,1,1,0,0,1,.28.33,1,1,0,0,1,.11.52,1,1,0,0,1-.11.46,1.12,1.12,0,0,1-.29.36,1.27,1.27,0,0,1-.41.23,1.5,1.5,0,0,1-.47.08,1.44,1.44,0,0,1-.65-.15,1.11,1.11,0,0,1-.48-.43"/><rect class="cls-3" x="75.61" y="32.98" width="0.71" height="3.74"/><path class="cls-3" d="M77.16,33h1.22a1.84,1.84,0,0,1,2,2,1.87,1.87,0,0,1-.3,1.09,1.55,1.55,0,0,1-.62.51,2.21,2.21,0,0,1-1,.19H77.16Zm.71,3.5h.45a1.21,1.21,0,0,0,1-.41,1.7,1.7,0,0,0,.33-1.1,1.56,1.56,0,0,0,0-.24,1.83,1.83,0,0,0-.4-1.1,1.13,1.13,0,0,0-.93-.41h-.46Z"/><path class="cls-3" d="M80.55,36.72l1.52-3.85h0l1.58,3.85h-.73l-.38-1h-1.3l-.38,1Zm.8-1.22h1.09l-.55-1.37Z"/><path class="cls-3" d="M84.11,33h1.21a2,2,0,0,1,1.55.64,1.92,1.92,0,0,1,.44,1.31A1.8,1.8,0,0,1,87,36a1.46,1.46,0,0,1-.61.51,2.21,2.21,0,0,1-1,.19H84.11Zm.71,3.5h.45a1.21,1.21,0,0,0,1-.41,1.7,1.7,0,0,0,.33-1.1c0-.11,0-.18,0-.24a1.83,1.83,0,0,0-.4-1.1,1.13,1.13,0,0,0-.93-.41h-.46Z"/><polygon class="cls-3" points="87.88 32.98 90.09 32.98 90.09 33.22 88.58 33.22 88.58 34.67 90 34.67 90 34.91 88.58 34.91 88.58 36.47 90.11 36.47 90.11 36.72 87.88 36.72 87.88 32.98"/><path class="cls-3" d="M95.3,33.8a2.21,2.21,0,0,0-.5-.51,1,1,0,0,0-.54-.18,1.34,1.34,0,0,0-.79.22,1.21,1.21,0,0,0-.46.58,2.35,2.35,0,0,0-.17.82,2.71,2.71,0,0,0,.09.71,1.6,1.6,0,0,0,.25.58,1.09,1.09,0,0,0,.42.38,1.19,1.19,0,0,0,1.28-.1,1.23,1.23,0,0,0,.5-.6l.25.13a1.72,1.72,0,0,1-.57.68,1.61,1.61,0,0,1-1,.31l-.37,0a1.9,1.9,0,0,1-.63-.23,2.38,2.38,0,0,1-.51-.44,2.19,2.19,0,0,1-.33-.6,1.89,1.89,0,0,1-.12-.67,2.32,2.32,0,0,1,.18-.82,2.16,2.16,0,0,1,.48-.67,1.8,1.8,0,0,1,.73-.4,1.9,1.9,0,0,1,.58-.09,1.72,1.72,0,0,1,1.45.76Z"/><path class="cls-3" d="M95.72,36.72l1.51-3.85h0l1.59,3.85h-.74l-.38-1h-1.3l-.37,1Zm.79-1.22h1.1l-.56-1.37Z"/><polygon class="cls-3" points="98.64 32.98 100.83 32.98 100.83 33.22 100.09 33.22 100.09 36.72 99.38 36.72 99.38 33.22 98.64 33.23 98.64 32.98"/><path class="cls-3" d="M103,32.88a1.63,1.63,0,0,1,1,.34,1.77,1.77,0,0,1,.57.74,2.25,2.25,0,0,1,.2.78,2.36,2.36,0,0,1-.16.92,1.84,1.84,0,0,1-.43.66,1.77,1.77,0,0,1-.59.37,1.53,1.53,0,0,1-.62.13,2,2,0,0,1-.94-.23,1.77,1.77,0,0,1-.7-.66,2.17,2.17,0,0,1-.28-1,2.43,2.43,0,0,1,.13-.76,1.92,1.92,0,0,1,.36-.66,1.66,1.66,0,0,1,.59-.46,1.78,1.78,0,0,1,.78-.16Zm0,.23a1,1,0,0,0-.6.17,1.13,1.13,0,0,0-.4.55,3.77,3.77,0,0,0-.16,1,2.43,2.43,0,0,0,.28,1.23.86.86,0,0,0,.79.49H103a.87.87,0,0,0,.57-.28,1.5,1.5,0,0,0,.33-.61,3,3,0,0,0,.1-.81,3.81,3.81,0,0,0-.1-.85,1.49,1.49,0,0,0-.32-.64.84.84,0,0,0-.63-.27m.64-1.3-.77.88h-.27l.55-.88Z"/><polygon class="cls-3" points="105.34 32.98 106.04 32.98 106.04 36.42 107.54 36.42 107.54 36.72 105.34 36.72 105.34 32.98"/><rect class="cls-3" x="107.97" y="32.98" width="0.71" height="3.74"/><path class="cls-3" d="M112.5,33.8a2.21,2.21,0,0,0-.5-.51,1,1,0,0,0-.54-.18,1.34,1.34,0,0,0-.79.22,1.21,1.21,0,0,0-.46.58,2.35,2.35,0,0,0-.17.82,2.71,2.71,0,0,0,.09.71,1.6,1.6,0,0,0,.25.58,1.09,1.09,0,0,0,.42.38,1.19,1.19,0,0,0,1.28-.1,1.23,1.23,0,0,0,.5-.6l.25.13a1.72,1.72,0,0,1-.57.68,1.61,1.61,0,0,1-1,.31l-.37,0a1.9,1.9,0,0,1-.63-.23,2.38,2.38,0,0,1-.51-.44,2.19,2.19,0,0,1-.33-.6,1.89,1.89,0,0,1-.12-.67,2.32,2.32,0,0,1,.18-.82,2.16,2.16,0,0,1,.48-.67,1.8,1.8,0,0,1,.73-.4,1.9,1.9,0,0,1,.58-.09,1.72,1.72,0,0,1,1.45.76Z"/><path class="cls-3" d="M112.92,36.72l1.51-3.85h0L116,36.72h-.73l-.38-1h-1.3l-.37,1Zm.79-1.22h1.1l-.56-1.37Z"/><path class="cls-3" d="M118.07,33h1.22a1.93,1.93,0,0,1,1.54.64A2.15,2.15,0,0,1,121,36a1.59,1.59,0,0,1-.61.51,2.29,2.29,0,0,1-1,.19h-1.32Zm.71,3.5h.46a1.24,1.24,0,0,0,1-.41,1.75,1.75,0,0,0,.32-1.1,1.56,1.56,0,0,0,0-.24,1.82,1.82,0,0,0-.39-1.1,1.17,1.17,0,0,0-.94-.41h-.46Z"/><path class="cls-3" d="M123.46,32.88a1.66,1.66,0,0,1,1,.34,1.85,1.85,0,0,1,.57.74,2.25,2.25,0,0,1,.2.78,2.36,2.36,0,0,1-.17.92,1.75,1.75,0,0,1-1,1,1.57,1.57,0,0,1-.62.13,2,2,0,0,1-1-.23,1.69,1.69,0,0,1-.69-.66,2.17,2.17,0,0,1-.28-1,2.42,2.42,0,0,1,.12-.76,2.13,2.13,0,0,1,.37-.66,1.58,1.58,0,0,1,.59-.46,1.78,1.78,0,0,1,.78-.16Zm0,.23a1.09,1.09,0,0,0-.61.17,1.13,1.13,0,0,0-.39.55,3.42,3.42,0,0,0-.16,1,2.54,2.54,0,0,0,.27,1.23.89.89,0,0,0,.79.49h.15a.87.87,0,0,0,.57-.28,1.5,1.5,0,0,0,.33-.61,3,3,0,0,0,.1-.81,3.81,3.81,0,0,0-.1-.85,1.49,1.49,0,0,0-.32-.64.84.84,0,0,0-.63-.27"/><polygon class="cls-3" points="125.77 32.98 126.54 32.98 127.62 35.51 128.62 32.98 129.35 32.98 129.35 36.72 128.65 36.72 128.65 33.71 128.64 33.71 127.41 36.82 127.4 36.82 126.08 33.68 126.07 33.68 126.07 36.72 125.77 36.72 125.77 32.98"/><path class="cls-3" d="M131.72,33h1.55a1.25,1.25,0,0,1,.54.12,1,1,0,0,1,.4.35.94.94,0,0,1,.14.5.82.82,0,0,1-.18.54.94.94,0,0,1-.47.28h0a.94.94,0,0,1,.6.34.92.92,0,0,1,.2.57,1,1,0,0,1-.14.54,1,1,0,0,1-.41.36,1.44,1.44,0,0,1-.61.13h-1.62Zm.71,1.67h.46a.67.67,0,0,0,.76-.75.63.63,0,0,0-.24-.51.94.94,0,0,0-.57-.16h-.41Zm0,1.82H133c.55,0,.82-.23.82-.69a1.07,1.07,0,0,0-.09-.43.71.71,0,0,0-.26-.33.69.69,0,0,0-.41-.13h-.6Z"/><path class="cls-3" d="M136.71,32.88a1.69,1.69,0,0,1,1,.34,1.85,1.85,0,0,1,.57.74,2.22,2.22,0,0,1,.19.78,2.36,2.36,0,0,1-.16.92,1.75,1.75,0,0,1-1,1,1.58,1.58,0,0,1-.63.13,2,2,0,0,1-.94-.23,1.69,1.69,0,0,1-.69-.66,2.06,2.06,0,0,1-.28-1,2.42,2.42,0,0,1,.12-.76,1.94,1.94,0,0,1,.37-.66,1.58,1.58,0,0,1,.59-.46,1.78,1.78,0,0,1,.78-.16Zm0,.23a1.08,1.08,0,0,0-.6.17,1.13,1.13,0,0,0-.39.55,3.13,3.13,0,0,0-.16,1,2.54,2.54,0,0,0,.27,1.23.87.87,0,0,0,.79.49h.14a.87.87,0,0,0,.58-.28,1.5,1.5,0,0,0,.33-.61,3.45,3.45,0,0,0,.1-.81,4.5,4.5,0,0,0-.1-.85,1.4,1.4,0,0,0-.33-.64.81.81,0,0,0-.63-.27"/><path class="cls-3" d="M139,36.24l.26-.2a1.19,1.19,0,0,0,.27.33.69.69,0,0,0,.3.13h.1l.07,0a.84.84,0,0,0,.48-.17.55.55,0,0,0,.22-.42.75.75,0,0,0-.2-.56,1.52,1.52,0,0,0-.58-.32,3.36,3.36,0,0,1-.5-.23.94.94,0,0,1-.46-.88.94.94,0,0,1,.18-.57,1.1,1.1,0,0,1,.47-.38,1.61,1.61,0,0,1,.63-.13,1.29,1.29,0,0,1,.42.1,1.54,1.54,0,0,1,.37.23.88.88,0,0,1,.24.34l-.23.16a.83.83,0,0,0-.76-.53.6.6,0,0,0-.43.16.62.62,0,0,0-.2.43.57.57,0,0,0,.13.39,1.32,1.32,0,0,0,.43.29l.44.19a1.88,1.88,0,0,1,.37.21,1,1,0,0,1,.28.33,1,1,0,0,1,.11.52,1,1,0,0,1-.11.46,1.12,1.12,0,0,1-.29.36,1.27,1.27,0,0,1-.41.23,1.5,1.5,0,0,1-.47.08,1.44,1.44,0,0,1-.65-.15,1.11,1.11,0,0,1-.48-.43"/><path class="cls-3" d="M145,33.8a2.22,2.22,0,0,0-.51-.51,1,1,0,0,0-.53-.18,1.32,1.32,0,0,0-.79.22,1.21,1.21,0,0,0-.46.58,2.14,2.14,0,0,0-.17.82,3.22,3.22,0,0,0,.08.71,1.79,1.79,0,0,0,.25.58,1.12,1.12,0,0,0,.43.38,1.34,1.34,0,0,0,.53.14,1.48,1.48,0,0,0,.75-.24,1.28,1.28,0,0,0,.5-.6l.25.13a1.72,1.72,0,0,1-.57.68,1.64,1.64,0,0,1-1,.31l-.36,0a1.9,1.9,0,0,1-.63-.23,2,2,0,0,1-.51-.44,2.19,2.19,0,0,1-.33-.6,2.15,2.15,0,0,1-.13-.67A2.34,2.34,0,0,1,142,34a1.88,1.88,0,0,1,.48-.67,1.83,1.83,0,0,1,.72-.4,2,2,0,0,1,.59-.09,1.73,1.73,0,0,1,1.45.76Z"/><path class="cls-3" d="M147.4,32.88a1.66,1.66,0,0,1,1,.34A1.85,1.85,0,0,1,149,34a2.25,2.25,0,0,1,.2.78,2.36,2.36,0,0,1-.17.92,1.75,1.75,0,0,1-1,1,1.57,1.57,0,0,1-.62.13,2,2,0,0,1-.95-.23,1.69,1.69,0,0,1-.69-.66,2.17,2.17,0,0,1-.28-1,2.42,2.42,0,0,1,.12-.76,2.13,2.13,0,0,1,.37-.66,1.58,1.58,0,0,1,.59-.46,1.78,1.78,0,0,1,.78-.16Zm0,.23a1.09,1.09,0,0,0-.61.17,1.13,1.13,0,0,0-.39.55,3.42,3.42,0,0,0-.16,1,2.54,2.54,0,0,0,.27,1.23.89.89,0,0,0,.79.49h.15a.87.87,0,0,0,.57-.28,1.5,1.5,0,0,0,.33-.61,3,3,0,0,0,.1-.81,3.81,3.81,0,0,0-.1-.85,1.49,1.49,0,0,0-.32-.64.84.84,0,0,0-.63-.27"/></g></g></svg>